<svg height="2030" width="720" xmlns="http://www.w3.org/2000/svg">
<rect height="2030" fill="#555" width="720"></rect>
<text fill="#7f7" font-family="Courier New" font-size="12" xml:space="preserve">
<tspan x="10" y="26">20 megabytes installed</tspan>
<tspan x="10" y="42"></tspan>
<tspan x="10" y="58">node_modules</tspan>
<tspan x="10" y="74">└─┬ node-readability@2.2.0 </tspan>
<tspan x="10" y="90">  ├─┬ encoding@0.1.12 </tspan>
<tspan x="10" y="106">  │ └── iconv-lite@0.4.15 </tspan>
<tspan x="10" y="122">  ├─┬ jsdom@6.5.1 </tspan>
<tspan x="10" y="138">  │ ├── acorn@2.7.0 </tspan>
<tspan x="10" y="154">  │ ├── acorn-globals@1.0.9 </tspan>
<tspan x="10" y="170">  │ ├── browser-request@0.3.3 </tspan>
<tspan x="10" y="186">  │ ├── cssom@0.3.2 </tspan>
<tspan x="10" y="202">  │ ├── cssstyle@0.2.37 </tspan>
<tspan x="10" y="218">  │ ├─┬ escodegen@1.8.1 </tspan>
<tspan x="10" y="234">  │ │ ├── esprima@2.7.3 </tspan>
<tspan x="10" y="250">  │ │ ├── estraverse@1.9.3 </tspan>
<tspan x="10" y="266">  │ │ ├── esutils@2.0.2 </tspan>
<tspan x="10" y="282">  │ │ ├─┬ optionator@0.8.2 </tspan>
<tspan x="10" y="298">  │ │ │ ├── deep-is@0.1.3 </tspan>
<tspan x="10" y="314">  │ │ │ ├── fast-levenshtein@2.0.6 </tspan>
<tspan x="10" y="330">  │ │ │ ├── levn@0.3.0 </tspan>
<tspan x="10" y="346">  │ │ │ ├── prelude-ls@1.1.2 </tspan>
<tspan x="10" y="362">  │ │ │ ├── type-check@0.3.2 </tspan>
<tspan x="10" y="378">  │ │ │ └── wordwrap@1.0.0 </tspan>
<tspan x="10" y="394">  │ │ └─┬ source-map@0.2.0 </tspan>
<tspan x="10" y="410">  │ │   └── amdefine@1.0.1 </tspan>
<tspan x="10" y="426">  │ ├─┬ htmlparser2@3.9.2 </tspan>
<tspan x="10" y="442">  │ │ ├── domelementtype@1.3.0 </tspan>
<tspan x="10" y="458">  │ │ ├── domhandler@2.3.0 </tspan>
<tspan x="10" y="474">  │ │ ├─┬ domutils@1.5.1 </tspan>
<tspan x="10" y="490">  │ │ │ └─┬ dom-serializer@0.1.0 </tspan>
<tspan x="10" y="506">  │ │ │   └── domelementtype@1.1.3 </tspan>
<tspan x="10" y="522">  │ │ ├── entities@1.1.1 </tspan>
<tspan x="10" y="538">  │ │ ├── inherits@2.0.3 </tspan>
<tspan x="10" y="554">  │ │ └─┬ readable-stream@2.2.9 </tspan>
<tspan x="10" y="570">  │ │   ├── buffer-shims@1.0.0 </tspan>
<tspan x="10" y="586">  │ │   ├── core-util-is@1.0.2 </tspan>
<tspan x="10" y="602">  │ │   ├── isarray@1.0.0 </tspan>
<tspan x="10" y="618">  │ │   ├── process-nextick-args@1.0.7 </tspan>
<tspan x="10" y="634">  │ │   ├── string_decoder@1.0.0 </tspan>
<tspan x="10" y="650">  │ │   └── util-deprecate@1.0.2 </tspan>
<tspan x="10" y="666">  │ ├── nwmatcher@1.3.9 </tspan>
<tspan x="10" y="682">  │ ├── parse5@1.5.1 </tspan>
<tspan x="10" y="698">  │ ├─┬ request@2.81.0 </tspan>
<tspan x="10" y="714">  │ │ ├── aws-sign2@0.6.0 </tspan>
<tspan x="10" y="730">  │ │ ├── aws4@1.6.0 </tspan>
<tspan x="10" y="746">  │ │ ├── caseless@0.12.0 </tspan>
<tspan x="10" y="762">  │ │ ├─┬ combined-stream@1.0.5 </tspan>
<tspan x="10" y="778">  │ │ │ └── delayed-stream@1.0.0 </tspan>
<tspan x="10" y="794">  │ │ ├── extend@3.0.0 </tspan>
<tspan x="10" y="810">  │ │ ├── forever-agent@0.6.1 </tspan>
<tspan x="10" y="826">  │ │ ├─┬ form-data@2.1.4 </tspan>
<tspan x="10" y="842">  │ │ │ └── asynckit@0.4.0 </tspan>
<tspan x="10" y="858">  │ │ ├─┬ har-validator@4.2.1 </tspan>
<tspan x="10" y="874">  │ │ │ ├─┬ ajv@4.11.7 </tspan>
<tspan x="10" y="890">  │ │ │ │ ├── co@4.6.0 </tspan>
<tspan x="10" y="906">  │ │ │ │ └─┬ json-stable-stringify@1.0.1 </tspan>
<tspan x="10" y="922">  │ │ │ │   └── jsonify@0.0.0 </tspan>
<tspan x="10" y="938">  │ │ │ └── har-schema@1.0.5 </tspan>
<tspan x="10" y="954">  │ │ ├─┬ hawk@3.1.3 </tspan>
<tspan x="10" y="970">  │ │ │ ├── boom@2.10.1 </tspan>
<tspan x="10" y="986">  │ │ │ ├── cryptiles@2.0.5 </tspan>
<tspan x="10" y="1002">  │ │ │ ├── hoek@2.16.3 </tspan>
<tspan x="10" y="1018">  │ │ │ └── sntp@1.0.9 </tspan>
<tspan x="10" y="1034">  │ │ ├─┬ http-signature@1.1.1 </tspan>
<tspan x="10" y="1050">  │ │ │ ├── assert-plus@0.2.0 </tspan>
<tspan x="10" y="1066">  │ │ │ ├─┬ jsprim@1.4.0 </tspan>
<tspan x="10" y="1082">  │ │ │ │ ├── assert-plus@1.0.0 </tspan>
<tspan x="10" y="1098">  │ │ │ │ ├── extsprintf@1.0.2 </tspan>
<tspan x="10" y="1114">  │ │ │ │ ├── json-schema@0.2.3 </tspan>
<tspan x="10" y="1130">  │ │ │ │ └── verror@1.3.6 </tspan>
<tspan x="10" y="1146">  │ │ │ └─┬ sshpk@1.13.0 </tspan>
<tspan x="10" y="1162">  │ │ │   ├── asn1@0.2.3 </tspan>
<tspan x="10" y="1178">  │ │ │   ├── assert-plus@1.0.0 </tspan>
<tspan x="10" y="1194">  │ │ │   ├── bcrypt-pbkdf@1.0.1 </tspan>
<tspan x="10" y="1210">  │ │ │   ├─┬ dashdash@1.14.1 </tspan>
<tspan x="10" y="1226">  │ │ │   │ └── assert-plus@1.0.0 </tspan>
<tspan x="10" y="1242">  │ │ │   ├── ecc-jsbn@0.1.1 </tspan>
<tspan x="10" y="1258">  │ │ │   ├─┬ getpass@0.1.6 </tspan>
<tspan x="10" y="1274">  │ │ │   │ └── assert-plus@1.0.0 </tspan>
<tspan x="10" y="1290">  │ │ │   ├── jodid25519@1.0.2 </tspan>
<tspan x="10" y="1306">  │ │ │   ├── jsbn@0.1.1 </tspan>
<tspan x="10" y="1322">  │ │ │   └── tweetnacl@0.14.5 </tspan>
<tspan x="10" y="1338">  │ │ ├── is-typedarray@1.0.0 </tspan>
<tspan x="10" y="1354">  │ │ ├── isstream@0.1.2 </tspan>
<tspan x="10" y="1370">  │ │ ├─┬ mime-types@2.1.15 </tspan>
<tspan x="10" y="1386">  │ │ │ └── mime-db@1.27.0 </tspan>
<tspan x="10" y="1402">  │ │ ├── oauth-sign@0.8.2 </tspan>
<tspan x="10" y="1418">  │ │ ├── performance-now@0.2.0 </tspan>
<tspan x="10" y="1434">  │ │ ├── qs@6.4.0 </tspan>
<tspan x="10" y="1450">  │ │ ├── safe-buffer@5.0.1 </tspan>
<tspan x="10" y="1466">  │ │ ├── tunnel-agent@0.6.0 </tspan>
<tspan x="10" y="1482">  │ │ └── uuid@3.0.1 </tspan>
<tspan x="10" y="1498">  │ ├── symbol-tree@3.2.2 </tspan>
<tspan x="10" y="1514">  │ ├─┬ tough-cookie@2.3.2 </tspan>
<tspan x="10" y="1530">  │ │ └── punycode@1.4.1 </tspan>
<tspan x="10" y="1546">  │ ├─┬ whatwg-url-compat@0.6.5 </tspan>
<tspan x="10" y="1562">  │ │ └── tr46@0.0.3 </tspan>
<tspan x="10" y="1578">  │ ├── xml-name-validator@2.0.1 </tspan>
<tspan x="10" y="1594">  │ ├── xmlhttprequest@1.8.0 </tspan>
<tspan x="10" y="1610">  │ └── xtend@4.0.1 </tspan>
<tspan x="10" y="1626">  ├── minimist@1.2.0 </tspan>
<tspan x="10" y="1642">  └─┬ request@2.40.0 </tspan>
<tspan x="10" y="1658">    ├── aws-sign2@0.5.0 </tspan>
<tspan x="10" y="1674">    ├── forever-agent@0.5.2 </tspan>
<tspan x="10" y="1690">    ├─┬ form-data@0.1.4 </tspan>
<tspan x="10" y="1706">    │ ├── async@0.9.2 </tspan>
<tspan x="10" y="1722">    │ ├─┬ combined-stream@0.0.7 </tspan>
<tspan x="10" y="1738">    │ │ └── delayed-stream@0.0.5 </tspan>
<tspan x="10" y="1754">    │ └── mime@1.2.11 </tspan>
<tspan x="10" y="1770">    ├─┬ hawk@1.1.1 </tspan>
<tspan x="10" y="1786">    │ ├── boom@0.4.2 </tspan>
<tspan x="10" y="1802">    │ ├── cryptiles@0.2.2 </tspan>
<tspan x="10" y="1818">    │ ├── hoek@0.9.1 </tspan>
<tspan x="10" y="1834">    │ └── sntp@0.2.4 </tspan>
<tspan x="10" y="1850">    ├─┬ http-signature@0.10.1 </tspan>
<tspan x="10" y="1866">    │ ├── asn1@0.1.11 </tspan>
<tspan x="10" y="1882">    │ ├── assert-plus@0.1.5 </tspan>
<tspan x="10" y="1898">    │ └── ctype@0.5.3 </tspan>
<tspan x="10" y="1914">    ├── json-stringify-safe@5.0.1 </tspan>
<tspan x="10" y="1930">    ├── mime-types@1.0.2 </tspan>
<tspan x="10" y="1946">    ├── node-uuid@1.4.8 </tspan>
<tspan x="10" y="1962">    ├── oauth-sign@0.3.0 </tspan>
<tspan x="10" y="1978">    ├── qs@1.0.2 </tspan>
<tspan x="10" y="1994">    ├── stringstream@0.0.5 </tspan>
<tspan x="10" y="2010">    └── tunnel-agent@0.4.3</tspan>
</text>
</svg>
